<svg width="98" height="42" viewBox="0 0 98 42" fill="none" xmlns="http://www.w3.org/2000/svg">
<path d="M27.3626 34V9.36664H43.7297V13.3344H31.8594V19.6498H43.0684V23.6176H31.8594V30.0322H43.7297V34H27.3626ZM45.3409 34V8.96986H49.6724V34H45.3409ZM51.3571 34V16.0127H55.4241V20.1789L54.9612 19.4845C55.2919 18.184 55.9532 17.214 56.9451 16.5748C57.9371 15.9355 59.1054 15.6159 60.45 15.6159C61.9269 15.6159 63.2274 16.0017 64.3517 16.7732C65.4759 17.5447 66.2033 18.5587 66.5339 19.8152L65.3105 19.9143C65.8616 18.4815 66.6882 17.4124 67.7904 16.7071C68.8926 15.9796 70.1601 15.6159 71.5929 15.6159C72.8714 15.6159 74.0066 15.9025 74.9986 16.4756C76.0125 17.0487 76.8061 17.8533 77.3792 18.8893C77.9524 19.9033 78.2389 21.0826 78.2389 22.4273V34H73.9074V23.4523C73.9074 22.6587 73.7641 21.9754 73.4776 21.4023C73.191 20.8291 72.7942 20.3883 72.2872 20.0797C71.7802 19.749 71.163 19.5837 70.4356 19.5837C69.7523 19.5837 69.1461 19.749 68.617 20.0797C68.088 20.3883 67.6802 20.8291 67.3936 21.4023C67.1071 21.9754 66.9638 22.6587 66.9638 23.4523V34H62.6323V23.4523C62.6323 22.6587 62.489 21.9754 62.2024 21.4023C61.9159 20.8291 61.5081 20.3883 60.979 20.0797C60.472 19.749 59.8658 19.5837 59.1605 19.5837C58.4771 19.5837 57.8709 19.749 57.3419 20.0797C56.8129 20.3883 56.4051 20.8291 56.1185 21.4023C55.8319 21.9754 55.6886 22.6587 55.6886 23.4523V34H51.3571Z" fill="#01191D"/>
<path d="M88.597 15.9121C93.7901 15.9121 98.0004 20.1224 98.0004 25.3154C98.0002 30.5084 93.79 34.7178 88.597 34.7178C83.4043 34.7176 79.1948 30.5082 79.1947 25.3154C79.1947 20.1225 83.4042 15.9123 88.597 15.9121ZM88.597 20.1143C85.7248 20.1144 83.3969 22.4432 83.3969 25.3154C83.397 28.1876 85.7249 30.5155 88.597 30.5156C91.4693 30.5156 93.7981 28.1877 93.7982 25.3154C93.7982 22.4431 91.4694 20.1143 88.597 20.1143Z" fill="#01191D"/>
<path d="M10.8369 9.22949C16.8221 9.22949 21.6747 14.0812 21.6748 20.0664V20.0674H21.6758C21.6758 20.6228 21.6328 21.1736 21.5498 21.7158C21.5133 21.955 21.466 22.191 21.4141 22.4248C20.9595 24.4759 19.9213 26.3707 18.3955 27.8633L12.5371 33.5938C11.5924 34.5175 10.0823 34.5176 9.1377 33.5938L3.28027 27.8633C1.79335 26.4089 0.768936 24.5727 0.296875 22.582C0.104845 21.7745 2.54626e-05 20.9327 0 20.0664C0.000151444 14.0813 4.85191 9.22972 10.8369 9.22949ZM4.35059 20.0664C4.35076 23.6269 7.23736 26.5537 10.7979 26.5537C14.3582 26.5536 17.2449 23.6268 17.2451 20.0664H4.35059Z" fill="#01191D"/>
</svg>
