<svg width="98" height="42" viewBox="0 0 98 42" fill="none" xmlns="http://www.w3.org/2000/svg">
<path d="M27.2634 34V9.36664H43.7297V13.5659H32.0578V19.5506H43.0684V23.7499H32.0578V29.8008H43.7297V34H27.2634ZM45.1448 34V8.96986H49.7739V34H45.1448ZM51.2902 34V15.9796H55.6548V20.245L55.1588 19.5506C55.4454 18.206 56.0957 17.214 57.1097 16.5748C58.1237 15.9135 59.314 15.5828 60.6807 15.5828C62.1576 15.5828 63.4581 15.9686 64.5823 16.7401C65.7286 17.4896 66.456 18.5036 66.7646 19.7821L65.442 19.9143C66.0151 18.4374 66.8528 17.3463 67.955 16.6409C69.0571 15.9355 70.3356 15.5828 71.7905 15.5828C73.069 15.5828 74.2042 15.8694 75.1962 16.4425C76.2102 17.0157 77.0037 17.8202 77.5768 18.8563C78.172 19.8703 78.4696 21.0496 78.4696 22.3942V34H73.8074V23.4523C73.8074 22.7028 73.6752 22.0636 73.4107 21.5345C73.1461 20.9834 72.7604 20.5646 72.2534 20.2781C71.7684 19.9695 71.1843 19.8152 70.501 19.8152C69.8397 19.8152 69.2555 19.9695 68.7485 20.2781C68.2636 20.5646 67.8778 20.9834 67.5912 21.5345C67.3267 22.0636 67.1945 22.7028 67.1945 23.4523V34H62.5323V23.4523C62.5323 22.7028 62.4 22.0636 62.1355 21.5345C61.871 20.9834 61.4963 20.5646 61.0113 20.2781C60.5264 19.9695 59.9312 19.8152 59.2258 19.8152C58.5645 19.8152 57.9804 19.9695 57.4734 20.2781C56.9884 20.5646 56.6027 20.9834 56.3161 21.5345C56.0516 22.0636 55.9193 22.7028 55.9193 23.4523V34H51.2902Z" fill="#2DD4BF"/>
<path d="M88.5972 15.9121C93.7902 15.9121 98.0005 20.1224 98.0005 25.3154C98.0004 30.5084 93.7901 34.7178 88.5972 34.7178C83.4044 34.7176 79.195 30.5082 79.1948 25.3154C79.1948 20.1225 83.4043 15.9123 88.5972 15.9121ZM88.5972 20.1143C85.7249 20.1144 83.397 22.4432 83.397 25.3154C83.3971 28.1876 85.725 30.5155 88.5972 30.5156C91.4694 30.5156 93.7982 28.1877 93.7983 25.3154C93.7983 22.4431 91.4695 20.1143 88.5972 20.1143Z" fill="#2DD4BF"/>
<path d="M10.8369 9.22949C16.8221 9.22949 21.6747 14.0812 21.6748 20.0664V20.0674H21.6758C21.6758 20.6228 21.6328 21.1736 21.5498 21.7158C21.5133 21.955 21.466 22.191 21.4141 22.4248C20.9595 24.4759 19.9213 26.3707 18.3955 27.8633L12.5371 33.5938C11.5924 34.5175 10.0823 34.5176 9.1377 33.5938L3.28027 27.8633C1.79335 26.4089 0.768936 24.5727 0.296875 22.582C0.104845 21.7745 2.54626e-05 20.9327 0 20.0664C0.000151444 14.0813 4.85191 9.22972 10.8369 9.22949ZM4.35059 20.0664C4.35076 23.6269 7.23736 26.5537 10.7979 26.5537C14.3582 26.5536 17.2449 23.6268 17.2451 20.0664H4.35059Z" fill="#2DD4BF"/>
</svg>
